# xmcd
#
# Track frame offsets:
#	150
#	17315
#	33805
#	57590
#	77177
#	96807
#	114047
#	128992
#	146415
#	164805
#	184767
#	200712
#
# Disc length: 2854
#
# Revision: 0
# Processed by: cddbd v1.5.2PL0 Copyright (c) Steve Scherf et al.
# Submitted via: Broken X Disk Manager 4.03.2263
#
DISCID=9e0b240c
DTITLE=The Pride - Mind Candy
DYEAR=1993
DGENRE=
TTITLE0=Mind Candy
TTITLE1=Everything's allright
TTITLE2=And it stoned me
TTITLE3=Drag me down
TTITLE4=Dry wind blowin' hard
TTITLE5=Young Americans
TTITLE6=Stand the rain
TTITLE7=Down on the ground
TTITLE8=Back to the night
TTITLE9=Rich man's door
TTITLE10=Death in the streets
TTITLE11=Just singing
EXTD=
EXTT0=
EXTT1=
EXTT2=
EXTT3=
EXTT4=
EXTT5=
EXTT6=
EXTT7=
EXTT8=
EXTT9=
EXTT10=
EXTT11=
PLAYORDER=
